TITLE ""
FILE "DISC1Track19.mp3" MP3
  TRACK 01 AUDIO
    TITLE "DISC1Track19_01"
    INDEX 01 00:00:00
  TRACK 02 AUDIO
    TITLE "DISC1Track19_02"
    INDEX 01 00:04:10
  TRACK 03 AUDIO
    TITLE "DISC1Track19_03"
    INDEX 01 00:04:34
  TRACK 04 AUDIO
    TITLE "DISC1Track19_04"
    INDEX 01 00:07:18
  TRACK 05 AUDIO
    TITLE "DISC1Track19_05"
    INDEX 01 00:10:05
  TRACK 06 AUDIO
    TITLE "DISC1Track19_06"
    INDEX 01 00:12:62
  TRACK 07 AUDIO
    TITLE "DISC1Track19_07"
    INDEX 01 00:13:09
  TRACK 08 AUDIO
    TITLE "DISC1Track19_08"
    INDEX 01 00:16:37
  TRACK 09 AUDIO
    TITLE "DISC1Track19_09"
    INDEX 01 00:19:27
  TRACK 10 AUDIO
    TITLE "DISC1Track19_10"
    INDEX 01 00:22:14
  TRACK 11 AUDIO
    TITLE "DISC1Track19_11"
    INDEX 01 00:22:35
  TRACK 12 AUDIO
    TITLE "DISC1Track19_12"
    INDEX 01 00:25:40
  TRACK 13 AUDIO
    TITLE "DISC1Track19_13"
    INDEX 01 00:28:50
  TRACK 14 AUDIO
    TITLE "DISC1Track19_14"
    INDEX 01 00:31:64
  TRACK 15 AUDIO
    TITLE "DISC1Track19_15"
    INDEX 01 00:32:10
  TRACK 16 AUDIO
    TITLE "DISC1Track19_16"
    INDEX 01 00:34:52
  TRACK 17 AUDIO
    TITLE "DISC1Track19_17"
    INDEX 01 00:37:74
  TRACK 18 AUDIO
    TITLE "DISC1Track19_18"
    INDEX 01 00:41:13
  TRACK 19 AUDIO
    TITLE "DISC1Track19_19"
    INDEX 01 00:41:39
  TRACK 20 AUDIO
    TITLE "DISC1Track19_20"
    INDEX 01 00:43:10
  TRACK 21 AUDIO
    TITLE "DISC1Track19_21"
    INDEX 01 00:45:21
  TRACK 22 AUDIO
    TITLE "DISC1Track19_22"
    INDEX 01 00:47:27
  TRACK 23 AUDIO
    TITLE "DISC1Track19_23"
    INDEX 01 00:47:51
  TRACK 24 AUDIO
    TITLE "DISC1Track19_24"
    INDEX 01 00:49:62
  TRACK 25 AUDIO
    TITLE "DISC1Track19_25"
    INDEX 01 00:52:01
  TRACK 26 AUDIO
    TITLE "DISC1Track19_26"
    INDEX 01 00:54:04
  TRACK 27 AUDIO
    TITLE "DISC1Track19_27"
    INDEX 01 00:54:28
  TRACK 28 AUDIO
    TITLE "DISC1Track19_28"
    INDEX 01 00:56:48
  TRACK 29 AUDIO
    TITLE "DISC1Track19_29"
    INDEX 01 00:59:33
  TRACK 30 AUDIO
    TITLE "DISC1Track19_30"
    INDEX 01 01:02:15
  TRACK 31 AUDIO
    TITLE "DISC1Track19_31"
    INDEX 01 01:02:37
  TRACK 32 AUDIO
    TITLE "DISC1Track19_32"
    INDEX 01 01:04:67
  TRACK 33 AUDIO
    TITLE "DISC1Track19_33"
    INDEX 01 01:08:26
  TRACK 34 AUDIO
    TITLE "DISC1Track19_34"
    INDEX 01 01:11:53
  TRACK 35 AUDIO
    TITLE "DISC1Track19_35"
    INDEX 01 01:12:04
  TRACK 36 AUDIO
    TITLE "DISC1Track19_36"
    INDEX 01 01:15:34
  TRACK 37 AUDIO
    TITLE "DISC1Track19_37"
    INDEX 01 01:18:55
  TRACK 38 AUDIO
    TITLE "DISC1Track19_38"
    INDEX 01 01:21:73
  TRACK 39 AUDIO
    TITLE "DISC1Track19_39"
    INDEX 01 01:22:20
  TRACK 40 AUDIO
    TITLE "DISC1Track19_40"
    INDEX 01 01:25:58
  TRACK 41 AUDIO
    TITLE "DISC1Track19_41"
    INDEX 01 01:29:18
  TRACK 42 AUDIO
    TITLE "DISC1Track19_42"
    INDEX 01 01:32:48
  TRACK 43 AUDIO
    TITLE "DISC1Track19_43"
    INDEX 01 01:32:73
  TRACK 44 AUDIO
    TITLE "DISC1Track19_44"
    INDEX 01 01:36:04
  TRACK 45 AUDIO
    TITLE "DISC1Track19_45"
    INDEX 01 01:39:09
  TRACK 46 AUDIO
    TITLE "DISC1Track19_46"
    INDEX 01 01:42:15
  TRACK 47 AUDIO
    TITLE "DISC1Track19_47"
    INDEX 01 01:42:38
  TRACK 48 AUDIO
    TITLE "DISC1Track19_48"
    INDEX 01 01:46:11
  TRACK 49 AUDIO
    TITLE "DISC1Track19_49"
    INDEX 01 01:49:70
  TRACK 50 AUDIO
    TITLE "DISC1Track19_50"
    INDEX 01 01:53:46
